/* XPM */
static char * glade_group_xpm[] = {
"16 16 10 1",
" 	c None",
".	c #020204",
"+	c #826E54",
"@	c #9A8A76",
"#	c #AD9E89",
"$	c #BAAE98",
"%	c #E0D9CF",
"&	c #D2CAC0",
"*	c #C6BEB0",
"=	c #EDE9DF",
"                ",
" ....           ",
".++@#.          ",
".+##$.......    ",
".....%&&**$#.   ",
".==%%&&**$$#.   ",
".=%%&&*$$$##.   ",
".%%&&**$$##@.   ",
".%&&*$$$##@@.   ",
".&&**$$##@@+.   ",
"..*$$$##@@++.   ",
" ...........    ",
"                ",
"                ",
"                ",
"                "};
